<?xml version="1.0" encoding="UTF-8" standalone="no"?>
<svg
   xmlns:dc="http://purl.org/dc/elements/1.1/"
   xmlns:cc="http://creativecommons.org/ns#"
   xmlns:rdf="http://www.w3.org/1999/02/22-rdf-syntax-ns#"
   xmlns:svg="http://www.w3.org/2000/svg"
   xmlns="http://www.w3.org/2000/svg"
   xmlns:sodipodi="http://sodipodi.sourceforge.net/DTD/sodipodi-0.dtd"
   xmlns:inkscape="http://www.inkscape.org/namespaces/inkscape"
   class="img-svg replaced-svg"
   id="svg2"
   viewBox="0 0 323.972 325.424"
   width="91.432mm"
   height="91.8418mm"
   sodipodi:docname="fo.svg"
   inkscape:version="0.92.2 (5c3e80d, 2017-08-06)"
   version="1.1">
  <metadata
     id="metadata7">
    <rdf:RDF>
      <cc:Work
         rdf:about="">
        <dc:format>image/svg+xml</dc:format>
        <dc:type
           rdf:resource="http://purl.org/dc/dcmitype/StillImage" />
      </cc:Work>
    </rdf:RDF>
  </metadata>
  <defs
     id="defs4" />
  <sodipodi:namedview
     fit-margin-bottom="0"
     fit-margin-right="0"
     fit-margin-left="0"
     fit-margin-top="0"
     inkscape:window-maximized="1"
     inkscape:window-y="-8"
     inkscape:window-x="-8"
     inkscape:window-height="1017"
     inkscape:window-width="1920"
     inkscape:snap-page="false"
     showgrid="false"
     inkscape:current-layer="layer1"
     inkscape:document-units="px"
     inkscape:cy="249.36322"
     inkscape:cx="-63.128389"
     inkscape:zoom="0.98994949"
     inkscape:pageshadow="2"
     inkscape:pageopacity="0.0"
     borderopacity="1.0"
     bordercolor="#666666"
     pagecolor="#ffffff"
     id="base" />
  <g
     id="layer1"
     transform="translate(-111.396 -163.945)"
     inkscape:groupmode="layer"
     inkscape:label="Layer 1">
    <path
       id="path3395"
       style="fill:#ff80ff;fill-opacity:1"
       d="m 232.899 486.997 c 0 -1.90233 2.86017 -7.67349 6.35593 -12.8248 c 3.49576 -5.15131 6.36951 -12.4614 6.38611 -16.2446 c 0.0166 -3.78323 1.71912 -13.171 3.78338 -20.8617 c 5.14998 -19.1869 4.81899 -23.2326 -2.82194 -34.4921 l -6.63551 -9.77796 l 6.63551 -5.29097 c 4.62107 -3.68472 6.6355 -7.71526 6.6355 -13.2766 c 0 -4.39209 1.7161 -9.70172 3.81356 -11.7992 c 3.06204 -3.06204 3.81356 -11.5854 3.81356 -43.2519 c 0 -23.5498 -1.02425 -40.0714 -2.54237 -41.0096 c -1.39831 -0.8642 -2.54238 -4.70714 -2.54238 -8.53987 c 0 -3.83273 -1.43008 -8.48449 -3.17796 -10.3372 c -2.54238 -2.69491 -2.54238 -3.60169 0 -4.5339 c 1.74788 -0.64089 3.17796 -5.07415 3.17796 -9.85169 c 0 -4.77754 1.14407 -8.68644 2.54238 -8.68644 c 1.3983 0 2.54237 -6.29238 2.54237 -13.9831 c 0 -11.5915 -0.76096 -13.9969 -4.44915 -14.0639 c -4.23729 -0.077 -4.23729 -0.24168 0 -3.45825 c 4.84037 -3.67436 5.98335 -9.17276 1.90678 -9.17276 c -1.39831 0 -2.54238 1.12227 -2.54238 2.49393 c 0 1.37167 -2.94393 3.23282 -6.54207 4.1359 c -4.65892 1.16931 -5.75667 2.42736 -3.81356 4.37047 c 5.05578 5.05577 3.12579 16.5883 -3.50293 20.9316 c -7.97983 5.22858 -16.1537 2.71004 -18.2448 -5.6216 c -2.15237 -8.57571 4.79092 -16.035 11.1765 -12.0071 c 4.99771 3.15247 5.9107 11.4649 1.42353 12.9606 c -1.89451 0.63151 -2.48034 -0.91007 -1.61025 -4.23728 c 0.94802 -3.62525 0.15261 -5.22993 -2.59239 -5.22993 c -5.08652 0 -7.23641 3.5381 -5.26755 8.66888 c 2.2393 5.83552 13.0083 5.03721 16.3529 -1.21225 c 4.10142 -7.66357 -2.9455 -17.6261 -12.4677 -17.6261 c -9.9037 0 -15.5897 7.17693 -15.5897 19.6776 c 0 8.46853 1.43977 11.5904 7.82218 16.9608 c 4.3022 3.62007 9.05579 6.58194 10.5635 6.58194 c 1.50774 0 0.96186 2.00212 -1.21307 4.44915 c -2.17493 2.44704 -5.725 8.73685 -7.88905 13.9774 c -7.88705 19.0995 -25.6858 17.7529 -32.3384 -2.44664 c -1.74328 -5.29317 -4.99157 -11.0176 -7.21841 -12.7211 c -3.69686 -2.82788 -3.69219 -3.10414 0.0537 -3.17797 c 2.25635 -0.0445 6.97951 -2.95789 10.4959 -6.47428 c 5.64882 -5.64883 6.51883 -9.01639 7.47019 -28.9149 c 1.19516 -24.9977 4.59393 -32.7334 18.1119 -41.2235 c 10.1819 -6.39482 27.0382 -5.23151 37.6265 2.59673 l 7.3625 5.44333 l 7.36249 -5.44333 c 10.5883 -7.82824 27.4446 -8.99155 37.6265 -2.59673 c 13.518 8.49011 16.9168 16.2259 18.1119 41.2235 c 0.95136 19.8986 1.82137 23.2661 7.4702 28.9149 c 3.51639 3.51639 8.23954 6.42981 10.4959 6.47428 c 3.74584 0.0738 3.75051 0.35009 0.0537 3.17797 c -2.22685 1.70341 -5.47513 7.42789 -7.21842 12.7211 c -6.65261 20.1995 -24.4514 21.5461 -32.3384 2.44664 c -2.16406 -5.24052 -5.71413 -11.5303 -7.88906 -13.9774 c -2.17492 -2.44703 -2.72081 -4.44915 -1.21307 -4.44915 c 1.50774 0 6.26133 -2.96187 10.5635 -6.58194 c 6.47844 -5.45124 7.82219 -8.44076 7.82219 -17.4026 c 0 -12.4923 -5.62016 -19.2358 -16.0314 -19.2358 c -9.08212 0 -16.0183 10.1662 -12.0259 17.6261 c 3.34461 6.24946 14.1136 7.04777 16.3529 1.21225 c 1.96887 -5.13078 -0.18102 -8.66888 -5.26755 -8.66888 c -2.745 0 -3.54041 1.60468 -2.59238 5.22993 c 0.87008 3.32721 0.28425 4.86879 -1.61026 4.23728 c -4.48717 -1.49572 -3.57418 -9.80812 1.42353 -12.9606 c 6.38558 -4.02792 13.3289 3.43135 11.1765 12.0071 c -2.09111 8.33164 -10.265 10.8502 -18.2448 5.6216 c -6.62873 -4.34331 -8.55871 -15.8758 -3.50294 -20.9316 c 1.94311 -1.94311 0.84536 -3.20116 -3.81356 -4.37047 c -3.59814 -0.90308 -6.54207 -2.76423 -6.54207 -4.1359 c 0 -1.37166 -1.14407 -2.49393 -2.54238 -2.49393 c -4.07656 0 -2.93359 5.4984 1.90678 9.17276 c 4.23729 3.21656 4.23729 3.38124 0 3.45825 c -3.6773 0.0668 -4.44915 2.45948 -4.44915 13.7919 c 0 9.29504 1.12705 14.1435 3.49931 15.0539 c 2.2685 0.8705 3.0403 3.74396 2.1943 8.16955 c -0.81464 4.2615 0.0119 7.64067 2.19977 8.99282 c 2.79125 1.72508 2.86212 2.80876 0.34808 5.32279 c -1.73619 1.7362 -3.15671 6.29259 -3.15671 10.1253 c 0 3.83273 -1.14407 7.67567 -2.54238 8.53987 c -1.51812 0.93825 -2.54237 17.4598 -2.54237 41.0096 c 0 31.6665 0.75152 40.1898 3.81356 43.2519 c 2.09746 2.09746 3.81356 6.96462 3.81356 10.8159 c 0 4.18197 2.56002 9.40737 6.35593 12.9734 c 7.64253 7.17978 7.70469 7.83635 1.42728 15.0743 c -7.36703 8.49426 -8.50699 18.263 -4.11091 35.228 c 2.17515 8.3942 3.95482 18.1924 3.95482 21.7738 c 0 3.58139 2.86017 10.7263 6.35593 15.8776 c 10.8231 15.9487 10.2742 16.2835 -26.6949 16.2835 c -26.1769 0 -33.0508 -0.71936 -33.0508 -3.45877 Z M 217.46 267.655 c 8.6818 -11.0371 7.01887 -13.6402 -8.71378 -13.6402 c -10.1205 0 -13.9831 0.9587 -13.9831 3.47069 c 0 4.94277 9.88572 16.8683 13.9831 16.8683 c 1.89448 0 5.81568 -3.01445 8.71378 -6.69879 Z m 114.407 0 c 8.68179 -11.0371 7.01886 -13.6402 -8.71378 -13.6402 c -10.1205 0 -13.9831 0.9587 -13.9831 3.47069 c 0 4.94277 9.88572 16.8683 13.9831 16.8683 c 1.89448 0 5.81568 -3.01445 8.71378 -6.69879 Z m -101.48 -69.5724 c 2.62974 0 3.94961 -2.26673 3.88346 -6.66938 c -0.11332 -7.54136 6.04076 -12.7293 12.2661 -10.3405 c 5.22935 2.00669 5.45066 11.5891 0.31319 13.5605 c -2.11526 0.8117 -5.57366 0.0419 -7.68532 -1.71058 c -3.20979 -2.66389 -3.56817 -2.47964 -2.18546 1.12363 c 2.31581 6.03491 17.1557 4.52149 18.3679 -1.87321 c 1.46354 -7.72056 -6.84898 -14.4295 -17.8785 -14.4295 c -12.1283 0 -22.3659 9.54572 -22.3659 20.8544 c 0 7.13924 0.19914 7.26055 5.65044 3.44231 c 3.10774 -2.17674 7.44309 -3.95772 9.63412 -3.95772 Z m 86.4104 0.37124 c 0 -11.1582 -10.3156 -20.7102 -22.3659 -20.7102 c -11.0295 0 -19.342 6.70893 -17.8785 14.4295 c 1.21222 6.3947 16.0521 7.90812 18.3679 1.87321 c 1.3827 -3.60327 1.02432 -3.78752 -2.18547 -1.12363 c -2.11166 1.75252 -5.57006 2.52228 -7.68532 1.71058 c -5.13747 -1.97143 -4.91616 -11.5538 0.31319 -13.5605 c 6.22532 -2.38888 12.3794 2.79909 12.2661 10.3405 c -0.067 4.45751 1.2474 6.66938 3.96323 6.66938 c 2.2349 0 6.28423 1.67972 8.99852 3.73271 c 6.44814 4.87712 6.20627 5.00813 6.20627 -3.36147 Z m -68.6441 -10.6908 c 0 -1.31578 -1.14407 -2.39233 -2.54238 -2.39233 c -1.3983 0 -2.54237 1.78362 -2.54237 3.96361 c 0 2.17998 1.14407 3.25653 2.54237 2.39233 c 1.39831 -0.8642 2.54238 -2.64783 2.54238 -3.96361 Z m 39.6716 -1.70377 c -2.58437 -2.58436 -4.71673 1.30651 -2.59632 4.73741 c 1.60178 2.59174 2.20062 2.59375 3.06179 0.0102 c 0.5888 -1.7664 0.37934 -3.90285 -0.46547 -4.74766 Z"
       inkscape:connector-curvature="0" />
  </g>
</svg>
