<?xml version="1.0" encoding="utf-8"?>
<!-- Generator: Adobe Illustrator 18.1.1, SVG Export Plug-In . SVG Version: 6.00 Build 0)  -->
<!DOCTYPE svg PUBLIC "-//W3C//DTD SVG 1.1//EN" "http://www.w3.org/Graphics/SVG/1.1/DTD/svg11.dtd">
<svg version="1.1" id="_x31_0" xmlns="http://www.w3.org/2000/svg" xmlns:xlink="http://www.w3.org/1999/xlink" x="0px" y="0px"
	 viewBox="0 0 512 512" style="enable-background:new 0 0 512 512;" xml:space="preserve">
<style type="text/css">
	.st0{fill:#374149;}
</style>
<g>
	<path class="st0" d="M280.365,391.094v-0.172c-14.68,6.355-31.207,6.625-46.09,0.961c-0.832-0.336-1.684-0.614-2.504-0.992v0.058
		c-0.047-0.019-0.098-0.035-0.145-0.054l-0.011-0.004v96.734c0,14.535,12.722,26.074,27.59,24.168
		c12.278-1.574,21.16-12.614,21.16-24.992V418.75l0.062-27.68C280.408,391.078,280.384,391.086,280.365,391.094z"/>
	<path class="st0" d="M403.647,146.285c-0.024-0.012-0.055-0.024-0.078-0.039c4.238-8.668,6.68-18.375,6.68-28.676
		c0-36.168-29.317-65.488-65.485-65.488c-7.934,0-15.492,1.503-22.523,4.094c-0.469,0.16-0.946,0.285-1.414,0.453
		c-3.308-24.508-20.141-44.738-42.781-52.832C271.151,1.324,263.732,0,256.002,0c-7.73,0-15.114,1.324-21.973,3.797
		c-21.09,7.5-37.023,25.578-41.844,47.797c-0.378,1.68-0.824,3.328-1.074,5.051c-7.41-2.91-15.454-4.562-23.895-4.562
		c-36.168,0-65.488,29.32-65.488,65.488c0,8.883,1.906,17.282,5.125,24.996c0.489,1.242,0.926,2.489,1.489,3.719h-0.02
		c-24.515,13.234-41.195,39.175-41.195,68.984c0,21.238,8.461,40.496,22.184,54.598c1.702,1.742,3.48,3.45,5.359,5.051
		c7.805,6.629,16.945,11.726,26.926,14.898c0.394,0.137,0.774,0.309,1.172,0.438c-0.348,0.726-0.656,1.453-0.934,2.179
		c-0.211,0.489-0.383,0.977-0.594,1.496c-0.454,1.149-0.871,2.336-1.254,3.485c-0.312,1.008-0.625,2.019-0.902,3.062
		c-0.281,0.801-0.488,1.637-0.664,2.438c-0.141,0.523-0.277,1.047-0.382,1.566c-0.313,1.289-0.555,2.614-0.766,3.938
		c-0.141,0.625-0.242,1.285-0.313,1.949c-0.176,1.043-0.316,2.126-0.418,3.168c-0.176,1.394-0.278,2.786-0.348,4.215
		c-0.07,1.39-0.106,2.75-0.106,4.141c0,1.777,0.07,3.519,0.207,5.262c0.664,10.168,3.238,19.777,7.418,28.484
		c2.543,5.294,5.676,10.27,9.298,14.832c8.812,11.18,20.652,19.918,34.266,24.934c5.398,1.985,11.038,3.41,16.926,4.18
		c3.34,0.449,6.754,0.66,10.234,0.66c13.442,0,26.117-3.414,37.191-9.402v-26.5l-65.535-73.473l-3.168-3.55
		c-0.347-0.489-0.664-1.047-0.836-1.707c-0.175-0.836-0.106-1.848,0.489-3.066c1.042-2.09,4.77-6.129,7.832-6.129
		c0.836,0,1.637,0.246,2.266,0.734l4.175,3.656h0.035l4.598,4.004l30.25,26.465l19.734,17.41v-0.141l0.16,0.141V286.93
		l-22.809-25.558l-2.578-2.886l-13.266-14.906h-0.035l-30.016-33.672c-0.176-0.226-0.332-0.488-0.473-0.766
		c-0.062-0.129-0.109-0.262-0.156-0.394c-0.226-0.582-0.348-1.246-0.218-2.023c0.007-0.074,0.035-0.145,0.05-0.219
		c0.09-0.43,0.23-0.879,0.481-1.367c1.011-2.09,4.738-6.164,7.801-6.164c0.836,0,1.637,0.278,2.266,0.766l45.129,39.418l1.774,1.566
		l6.781,5.918l5.11,4.598v-0.137l0.16,0.137v-75.598c0-13.477,10.934-24.375,24.375-24.375c6.718,0,12.848,2.715,17.238,7.141
		c4.422,4.422,7.137,10.481,7.137,17.234v45.469l-0.106,29.942l0.106-0.094v0.21l12.011-10.515l1.778-1.531l44.922-39.246
		c0.801-0.625,1.637-0.902,2.473-0.902c3.062,0,6.79,4.074,7.832,6.164c1.118,2.226,0.383,3.793-0.172,4.527l-30.226,33.914
		l-13.266,14.867l-2.578,2.89l-22.774,25.527v25.102l-0.106,16.528l0.106-0.09v0.211l50.109-43.805l4.598-4.004l4.003-3.484
		c0.801-0.626,1.637-0.906,2.473-0.906c3.062,0,6.79,4.039,7.832,6.129c0.594,1.218,0.664,2.266,0.524,3.066
		c-0.141,0.66-0.454,1.149-0.696,1.461l-3.343,3.762l-65.5,73.438v26.606c11.074,5.989,23.75,9.367,37.191,9.367
		c3.481,0,6.93-0.242,10.305-0.66c5.851-0.77,11.492-2.195,16.855-4.18c0.035,0,0.106-0.035,0.137-0.035
		c13.477-5.015,25.211-13.648,33.989-24.722c0.034-0.07,0.105-0.106,0.14-0.176c3.622-4.527,6.719-9.507,9.262-14.766
		c4.211-8.738,6.79-18.382,7.454-28.55c0-0.035,0-0.035,0-0.07c0.137-1.707,0.207-3.45,0.207-5.191
		c0-10.954-2.274-21.332-6.387-30.79c-0.117-0.285-0.203-0.578-0.324-0.867c10.477-3.133,20.016-8.422,28.125-15.351
		c1.883-1.566,3.657-3.274,5.363-5.016c13.719-14.102,22.18-33.359,22.18-54.598C444.873,185.425,428.197,159.485,403.647,146.285z"
		/>
</g>
</svg>
