<?xml version="1.0" encoding="utf-8"?>
<!-- Generator: Adobe Illustrator 18.1.1, SVG Export Plug-In . SVG Version: 6.00 Build 0)  -->
<!DOCTYPE svg PUBLIC "-//W3C//DTD SVG 1.1//EN" "http://www.w3.org/Graphics/SVG/1.1/DTD/svg11.dtd">
<svg version="1.1" id="_x31_0" xmlns="http://www.w3.org/2000/svg" xmlns:xlink="http://www.w3.org/1999/xlink" x="0px" y="0px"
	 viewBox="0 0 512 512" style="enable-background:new 0 0 512 512;" xml:space="preserve">
<style type="text/css">
	.st0{fill:#374149;}
</style>
<g>
	<circle class="st0" cx="199.795" cy="178.816" r="29.949"/>
	<path class="st0" d="M162.479,90.637c-11.141,0-20.168,9.027-20.168,20.164c0,11.141,9.027,20.172,20.168,20.172
		c11.137,0,20.168-9.031,20.168-20.172C182.647,99.664,173.616,90.637,162.479,90.637z"/>
	<path class="st0" d="M311.49,171.699c22.493,0,40.727-18.234,40.727-40.726c0-22.496-18.234-40.726-40.727-40.726
		c-22.492,0-40.726,18.23-40.726,40.726C270.764,153.465,288.998,171.699,311.49,171.699z"/>
	<path class="st0" d="M76.545,253.442c-21.586,0-39.078,17.496-39.078,39.078c0,21.578,17.492,39.078,39.078,39.078
		c21.578,0,39.074-17.5,39.074-39.078C115.62,270.938,98.123,253.442,76.545,253.442z"/>
	<circle class="st0" cx="443.014" cy="279.9" r="41.217"/>
	<path class="st0" d="M166.217,83.289c19.878,0,35.988-16.109,35.988-35.984s-16.11-35.988-35.988-35.988
		c-19.875,0-35.989,16.113-35.989,35.988S146.342,83.289,166.217,83.289z"/>
	<circle class="st0" cx="99.963" cy="156.166" r="19.444"/>
	<path class="st0" d="M149.357,351.851c-16.538,0-29.949,13.41-29.949,29.954c0,16.539,13.41,29.949,29.949,29.949
		c16.543,0,29.954-13.41,29.954-29.949C179.311,365.262,165.9,351.851,149.357,351.851z"/>
	<path class="st0" d="M175.932,311.859c0-11.965-9.699-21.664-21.664-21.664c-11.965,0-21.668,9.699-21.668,21.664
		c0,11.969,9.703,21.668,21.668,21.668C166.232,333.527,175.932,323.828,175.932,311.859z"/>
	<path class="st0" d="M421.948,337.906c-10.246,0-18.551,8.305-18.551,18.55c0,10.242,8.305,18.551,18.551,18.551
		c10.246,0,18.55-8.309,18.55-18.551C440.498,346.211,432.193,337.906,421.948,337.906z"/>
	<circle class="st0" cx="469.268" cy="196.068" r="22.56"/>
	<path class="st0" d="M345.803,368.836c-12.309,0-22.285,9.981-22.285,22.285c0,12.309,9.976,22.286,22.285,22.286
		c12.309,0,22.289-9.977,22.289-22.286C368.092,378.817,358.112,368.836,345.803,368.836z"/>
	<path class="st0" d="M372.104,296.023c-10.355,0-18.75,8.394-18.75,18.754c0,10.355,8.395,18.75,18.75,18.75
		s18.75-8.394,18.75-18.75C390.853,304.418,382.459,296.023,372.104,296.023z"/>
	<path class="st0" d="M415.33,169.93c0-11.234-9.106-20.34-20.34-20.34c-11.234,0-20.339,9.106-20.339,20.34
		c0,11.23,9.105,20.336,20.339,20.336C406.224,190.266,415.33,181.16,415.33,169.93z"/>
	<circle class="st0" cx="236.154" cy="98.484" r="21.004"/>
	<path class="st0" d="M345.803,60.386c12.496,0,22.625-10.125,22.625-22.625c0-12.496-10.129-22.625-22.625-22.625
		c-12.496,0-22.625,10.129-22.625,22.625C323.178,50.262,333.307,60.386,345.803,60.386z"/>
	<circle class="st0" cx="258.549" cy="22.394" r="22.394"/>
	<path class="st0" d="M431.018,134.59c0,11.914,9.66,21.578,21.574,21.578c11.914,0,21.574-9.664,21.574-21.578
		c0-11.918-9.66-21.578-21.574-21.578C440.678,113.012,431.018,122.672,431.018,134.59z"/>
	<path class="st0" d="M411.932,109.07c14.238,0,25.778-11.543,25.778-25.782c0-14.23-11.539-25.777-25.778-25.777
		c-14.238,0-25.778,11.546-25.778,25.777C386.154,97.527,397.693,109.07,411.932,109.07z"/>
	<path class="st0" d="M314.853,203.527c0,10.317,8.364,18.684,18.684,18.684c10.316,0,18.68-8.367,18.68-18.684
		c0-10.316-8.364-18.679-18.68-18.679C323.217,184.848,314.853,193.211,314.853,203.527z"/>
	<path class="st0" d="M78.971,115.699c11.594,0,20.992-9.398,20.992-20.988c0-11.59-9.398-20.989-20.992-20.989
		c-11.59,0-20.988,9.398-20.988,20.989C57.983,106.301,67.381,115.699,78.971,115.699z"/>
	<path class="st0" d="M63.014,194.926c0-11.828-9.59-21.418-21.422-21.418c-11.836,0-21.422,9.59-21.422,21.418
		c0,11.836,9.586,21.426,21.422,21.426C53.424,216.351,63.014,206.762,63.014,194.926z"/>
	<path class="st0" d="M384.635,213.855L285.6,282.117c-2.988,2.063-7.11,0.356-7.766-3.214l-12.855-69.914
		c-1.008-5.469-8.844-5.469-9.848,0l-12.859,69.914c-0.656,3.57-4.778,5.278-7.766,3.214l-99.035-68.262
		c-4.574-3.156-10.118,2.387-6.961,6.962l97.054,140.804c0.754,1.094,1.043,2.442,0.805,3.746L200.49,506.09
		c-0.566,3.074,1.794,5.91,4.922,5.91h54.641h54.64c3.126,0,5.489-2.836,4.922-5.91l-25.879-140.722
		c-0.238-1.305,0.047-2.652,0.801-3.746L391.6,220.817C394.752,216.242,389.213,210.699,384.635,213.855z"/>
</g>
</svg>
