<?xml version="1.0" encoding="utf-8"?>
<!-- Generator: Adobe Illustrator 18.1.1, SVG Export Plug-In . SVG Version: 6.00 Build 0)  -->
<!DOCTYPE svg PUBLIC "-//W3C//DTD SVG 1.1//EN" "http://www.w3.org/Graphics/SVG/1.1/DTD/svg11.dtd">
<svg version="1.1" id="_x31_0" xmlns="http://www.w3.org/2000/svg" xmlns:xlink="http://www.w3.org/1999/xlink" x="0px" y="0px"
	 viewBox="0 0 512 512" style="enable-background:new 0 0 512 512;" xml:space="preserve">
<style type="text/css">
	.st0{fill:#374149;}
</style>
<g>
	<path class="st0" d="M463.799,418.176l-76.586-96.863c-3.718-4.703-0.367-11.625,5.633-11.625h38.199c6,0,9.351-6.926,5.629-11.633
		L333.042,166.981c-3.718-4.706-0.367-11.629,5.63-11.629h28.808c6,0,9.352-6.922,5.633-11.629L261.628,2.727
		c-2.871-3.636-8.382-3.636-11.258,0L138.89,143.723c-3.722,4.707-0.37,11.629,5.63,11.629h28.808c6,0,9.352,6.922,5.629,11.629
		L75.324,298.055c-3.719,4.707-0.367,11.633,5.633,11.633h38.199c5.996,0,9.347,6.922,5.629,11.625l-76.582,96.863
		c-3.722,4.707-0.371,11.629,5.629,11.629h158.828c3.961,0,7.176,3.215,7.176,7.176v67.839c0,3.965,3.214,7.18,7.176,7.18h57.976
		c3.965,0,7.18-3.215,7.18-7.18v-67.839c0-3.961,3.21-7.176,7.175-7.176h158.828C464.167,429.805,467.519,422.883,463.799,418.176z"
		/>
</g>
</svg>
