<?xml version="1.0" encoding="utf-8"?>
<!-- Generator: Adobe Illustrator 18.1.1, SVG Export Plug-In . SVG Version: 6.00 Build 0)  -->
<!DOCTYPE svg PUBLIC "-//W3C//DTD SVG 1.1//EN" "http://www.w3.org/Graphics/SVG/1.1/DTD/svg11.dtd">
<svg version="1.1" id="_x31_0" xmlns="http://www.w3.org/2000/svg" xmlns:xlink="http://www.w3.org/1999/xlink" x="0px" y="0px"
	 viewBox="0 0 512 512" style="enable-background:new 0 0 512 512;" xml:space="preserve">
<style type="text/css">
	.st0{fill:#374149;}
</style>
<g>
	<path class="st0" d="M419.31,317.058c0.398-1.181,0.878-2.302,1.254-3.501c0.03-0.091,0.047-0.186,0.077-0.278
		c6.511-20.75,9.978-43.715,9.978-68.503C430.619,129.234,355.937,0,256.036,0c-35.771,0-68.247,16.541-95.26,43.028
		c-20.056,19.683-37.116,44.899-50.288,73.038c-18.482,39.732-29.107,85.158-29.107,128.711c0,32.998,6.135,62.854,17.51,88.45
		c9.654,21.927,23.198,40.781,39.958,55.824c22.826,20.729,51.71,34.57,85.085,39.882v66.874c0,8.944,7.249,16.194,16.19,16.194
		h31.748c8.942,0,16.19-7.25,16.19-16.194v-66.874c20.053-3.19,38.384-9.551,54.845-18.5
		C379.07,390.962,405.455,358.683,419.31,317.058z M288.063,360.042v-83.762h-64.129v66.563l-0.041,17.158
		c-18.017-4.79-33.191-13.918-45.158-26.776c-19.306-20.578-30.006-50.887-30.006-88.45c0-43.028,12.946-86.282,32.399-119.358
		c20.279-34.646,47.746-58.071,74.908-58.071c53.131,0,107.234,89.502,107.234,177.429c0,55.93-23.769,95.728-64.228,111.622
		C295.499,357.774,291.87,359.034,288.063,360.042z"/>
</g>
</svg>
