<?xml version="1.0" encoding="utf-8"?>
<!-- Generator: Adobe Illustrator 18.1.1, SVG Export Plug-In . SVG Version: 6.00 Build 0)  -->
<!DOCTYPE svg PUBLIC "-//W3C//DTD SVG 1.1//EN" "http://www.w3.org/Graphics/SVG/1.1/DTD/svg11.dtd">
<svg version="1.1" id="_x31_0" xmlns="http://www.w3.org/2000/svg" xmlns:xlink="http://www.w3.org/1999/xlink" x="0px" y="0px"
	 viewBox="0 0 512 512" style="enable-background:new 0 0 512 512;" xml:space="preserve">
<style type="text/css">
	.st0{fill:#374149;}
</style>
<g>
	<polygon class="st0" points="5.297,256.537 5.422,256.529 5.309,256.697 14.488,255.963 20.297,263.108 22.434,254.154 
		27.695,252.123 30.938,250.975 30.836,250.912 31.023,250.838 23.164,246.037 22.859,240.361 22.77,236.967 22.68,237.041 
		22.668,236.842 15.672,242.834 10.226,241.385 6.922,240.404 6.969,240.518 6.778,240.467 10.309,248.967 7.242,253.713 	"/>
	<polygon class="st0" points="436.114,43.424 435.16,48.967 434.481,52.357 434.59,52.303 434.554,52.498 442.703,48.217 
		450.855,52.498 449.297,43.424 453.355,39.471 455.867,37.154 455.746,37.139 455.89,36.998 446.782,35.674 444.278,30.604 
		442.848,27.49 442.793,27.596 442.703,27.42 438.629,35.674 433.043,36.487 429.633,36.885 429.718,36.971 429.519,36.998 	"/>
	<polygon class="st0" points="51.199,70.948 53.469,79.869 59.168,72.639 64.793,73.006 68.226,73.326 68.156,73.224 68.355,73.236 
		63.242,65.58 65.336,60.326 66.695,57.182 66.574,57.217 66.649,57.029 57.789,59.525 53.446,55.916 50.867,53.647 50.859,53.772 
		50.707,53.643 50.344,62.842 45.574,65.857 42.617,67.608 42.73,67.651 42.562,67.76 	"/>
	<polygon class="st0" points="455.981,135.315 455.89,135.139 451.817,143.392 446.222,144.205 442.817,144.604 442.902,144.689 
		442.703,144.717 449.297,151.143 448.344,156.72 447.668,160.076 447.774,160.021 447.742,160.217 455.89,155.932 464.039,160.217 
		462.484,151.143 466.527,147.201 469.054,144.873 468.934,144.857 469.078,144.717 459.965,143.392 457.461,138.319 
		456.031,135.209 	"/>
	<path class="st0" d="M184.422,118.6c21.762,0,39.36-17.602,39.36-39.359c0-21.68-17.598-39.282-39.36-39.282
		c-0.859,0-1.691,0.09-2.523,0.172c-0.297-0.008-0.602-0.008-0.875-0.039c0.024,0.031,0.043,0.066,0.066,0.094
		c-0.058,0.007-0.129,0.003-0.187,0.011c4.32,5.043,6.961,11.68,6.961,18.883c0,16.078-13.121,29.199-29.199,29.199
		c-3.734,0-7.222-0.871-10.496-2.153c-0.813-0.351-1.711-0.55-2.469-0.992c0.004,0.031,0.016,0.058,0.023,0.09
		c-0.058-0.027-0.125-0.038-0.179-0.066C148.344,104.12,164.664,118.6,184.422,118.6z"/>
	<path class="st0" d="M304.133,6.205c0-2.805-2.297-5.102-5.102-5.102c-2.809,0-5.106,2.297-5.106,5.102v47.348h10.207V6.205z"/>
	<path class="st0" d="M258.918,411.881h8c3.282,0,5.922-2.641,5.922-5.922V304.28c0-3.282,2.558-5.922,5.84-5.922
		c3.281,0,5.918,2.641,5.918,5.922v14.949v0.09l0,0v0.16h8.348l0.054,0.004v-0.004h0.16V304.28c0-3.282,2.641-5.922,5.84-5.922
		c3.282,0,5.918,2.641,5.918,5.922v14.949v0.09l0,0v0.16h8.348l0.054,0.004v-0.004h0.161V304.28c0-3.282,2.64-5.922,5.918-5.922
		c3.199,0,5.84,2.641,5.84,5.922v14.949v0.09l0,0v0.16h19.558l0.121,0.004v-0.004h0.161V275.4c0-3.281-2.637-5.922-5.918-5.922
		h-80.242c-3.277,0-5.918,2.641-5.918,5.922v130.558C253,409.24,255.641,411.881,258.918,411.881z"/>
	<path class="st0" d="M272.359,228.6h2.238c3.282,0,5.922-2.641,5.922-5.922V164.44h8.321v63.61v0.39l0,0v0.16h6v-64.16h8.32v63.61
		l-0.004,0.39h0.004v0.16h6.078v-64.16h8.32v58.238c0,3.281,2.641,5.922,5.922,5.922h2.16c3.277,0,5.918-2.641,5.918-5.922v-72.797
		c0-3.282-2.641-5.84-5.918-5.84h-1.52c-3.281,0-5.922-2.641-5.922-5.922V72.678c0-3.282-2.641-5.922-5.84-5.922h-26.641
		c-3.277,0-5.918,2.641-5.918,5.922v65.442c0,3.281-2.641,5.922-5.84,5.922h-1.602c-3.199,0-5.84,2.558-5.84,5.84v72.797
		C266.519,225.959,269.16,228.6,272.359,228.6z M296.121,143.854v0.187h-8.242V87.154h8.242V143.854z"/>
	<path class="st0" d="M265.805,260.881h66.449c3.254,0,5.887-2.633,5.887-5.887v-10.035c0-3.254-2.633-5.886-5.887-5.886h-66.449
		c-3.254,0-5.89,2.633-5.89,5.886v10.035C259.914,258.248,262.55,260.881,265.805,260.881z"/>
	<path class="st0" d="M511.359,430.74V241.857H378.961v92.715v0.41h-87.812h-0.27l0,0h-0.161v95.332v0.426h-15v-10.859h-23.679
		c-3.282,0-5.918,2.64-5.918,5.918v2.082c0,1.054,0.367,2,0.871,2.859h-43.394V165.62H71.121v177.39l-0.004,0.93H0v165.778v1.015
		l0,0v0.164h512V430.74H511.359z M494.718,269.78v18.16H476v-18.16H494.718z M494.718,305.299v18.242H476v-18.242H494.718z
		 M494.718,340.9v18.16H476V340.9H494.718z M494.718,376.42v18.238H476V376.42H494.718z M494.718,412.021v18.157H476v-18.157
		H494.718z M494.718,447.541v18.238H476v-18.238H494.718z M458.238,269.78v18.16h-18.719v-18.16H458.238z M458.238,305.299v18.242
		h-18.719v-18.242H458.238z M458.238,340.9v18.16h-18.719V340.9H458.238z M458.238,376.42v18.238h-18.719V376.42H458.238z
		 M458.238,412.021v18.157h-18.719v-18.157H458.238z M458.238,447.541v18.238h-18.719v-18.238H458.238z M421.758,269.78v18.16
		h-18.718v-18.16H421.758z M421.758,305.299v18.242h-18.718v-18.242H421.758z M421.758,340.9v18.16h-18.718V340.9H421.758z
		 M421.758,376.42v18.238h-18.718V376.42H421.758z M421.758,412.021v18.157h-18.718v-18.157H421.758z M421.758,447.541v18.238
		h-18.718v-18.238H421.758z M365.84,376.42v18.238h-18.719V376.42H365.84z M365.84,412.021v18.157h-18.719v-18.157H365.84z
		 M365.84,447.541v18.238h-18.719v-18.238H365.84z M329.359,376.42v18.238h-18.718V376.42H329.359z M329.359,412.021v18.157h-18.718
		v-18.157H329.359z M329.359,447.541v18.238h-18.718v-18.238H329.359z M273.199,447.541v18.238h-18.718v-18.238H273.199z
		 M236.718,447.541v18.238H218v-18.238H236.718z M180.801,198.658v18.161h-18.722v-18.161H180.801z M180.801,234.178v18.242h-18.722
		v-18.242H180.801z M180.801,269.78v18.16h-18.722v-18.16H180.801z M180.801,305.299v18.242h-18.722v-18.242H180.801z
		 M180.801,340.9v18.16h-18.722V340.9H180.801z M180.801,376.42v18.238h-18.722V376.42H180.801z M180.801,412.021v18.157h-18.722
		v-18.157H180.801z M180.801,447.541v18.238h-18.722v-18.238H180.801z M144.32,198.658v18.161h-18.722v-18.161H144.32z
		 M144.32,234.178v18.242h-18.722v-18.242H144.32z M144.32,269.78v18.16h-18.722v-18.16H144.32z M144.32,305.299v18.242h-18.722
		v-18.242H144.32z M144.32,340.9v18.16h-18.722V340.9H144.32z M144.32,376.42v18.238h-18.722V376.42H144.32z M144.32,412.021v18.157
		h-18.722v-18.157H144.32z M144.32,447.541v18.238h-18.722v-18.238H144.32z M107.84,198.658v18.161H89.121v-18.161H107.84z
		 M107.84,234.178v18.242H89.121v-18.242H107.84z M107.84,269.78v18.16H89.121v-18.16H107.84z M107.84,305.299v18.242H89.121
		v-18.242H107.84z M107.84,340.9v18.16H89.121V340.9H107.84z M107.84,376.42v18.238H89.121V376.42H107.84z M107.84,412.021v18.157
		H89.121v-18.157H107.84z M107.84,447.541v18.238H89.121v-18.238H107.84z M66.481,376.42v18.238H47.758V376.42H66.481z
		 M66.481,412.021v18.157H47.758v-18.157H66.481z M66.481,447.541v18.238H47.758v-18.238H66.481z M30,376.42v18.238H11.282V376.42
		H30z M30,412.021v18.157H11.282v-18.157H30z M30,447.541v18.238H11.282v-18.238H30z"/>
</g>
</svg>
