<?xml version="1.0" encoding="utf-8"?>
<!-- Generator: Adobe Illustrator 18.1.1, SVG Export Plug-In . SVG Version: 6.00 Build 0)  -->
<!DOCTYPE svg PUBLIC "-//W3C//DTD SVG 1.1//EN" "http://www.w3.org/Graphics/SVG/1.1/DTD/svg11.dtd">
<svg version="1.1" id="_x31_0" xmlns="http://www.w3.org/2000/svg" xmlns:xlink="http://www.w3.org/1999/xlink" x="0px" y="0px"
	 viewBox="0 0 512 512" style="enable-background:new 0 0 512 512;" xml:space="preserve">
<style type="text/css">
	.st0{fill:#374149;}
</style>
<g>
	<path class="st0" d="M247.855,54.258v0.16h10.594V5.293c0-2.91-2.382-5.293-5.297-5.293c-2.914,0-5.297,2.383-5.297,5.293V54.11
		V54.258L247.855,54.258z"/>
	<path class="st0" d="M211.5,463.867h8.328c3.375,0,6.11-2.734,6.11-6.11V352.25c0-3.375,2.734-6.11,6.109-6.11
		c3.371,0,6.11,2.734,6.11,6.11v111.617h8.883V352.25c0-3.375,2.734-6.11,6.109-6.11c3.375,0,6.11,2.734,6.11,6.11v111.117v0.34l0,0
		v0.16h8.883V352.25c0-3.375,2.734-6.11,6.109-6.11c3.375,0,6.11,2.734,6.11,6.11v105.507c0,3.375,2.734,6.11,6.11,6.11h8.328
		c3.375,0,6.11-2.734,6.11-6.11V322.262c0-3.375-2.734-6.11-6.11-6.11H211.5c-3.375,0-6.11,2.734-6.11,6.11v135.496
		C205.39,461.133,208.125,463.867,211.5,463.867z"/>
	<path class="st0" d="M225.515,273.703h2.309c3.375,0,6.11-2.734,6.11-6.106v-77.054h8.617v82.75v0.254l0,0v0.156h6.29v-83.16h8.617
		v83.16h6.286v-83.16h8.64v77.054c0,3.371,2.734,6.106,6.11,6.106h2.289c3.371,0,6.11-2.734,6.11-6.106v-92.137
		c0-3.375-2.738-6.11-6.11-6.11h-1.602c-3.37,0-6.105-2.734-6.105-6.109V74.258c0-3.374-2.738-6.109-6.11-6.109h-27.633
		c-3.375,0-6.11,2.734-6.11,6.109v88.985c0,3.374-2.734,6.109-6.11,6.109h-1.598c-3.374,0-6.109,2.734-6.109,6.11v92.137
		C219.406,270.969,222.141,273.703,225.515,273.703z M250.172,169.266v0.086h-8.618V89.32h8.618V169.266z"/>
	<path class="st0" d="M204.39,486.59h97.535c3.375,0,6.11-2.734,6.11-6.106v-2.133c0-3.374-2.734-6.109-6.11-6.109h-21.566h-12.218
		h-8.883h-12.218h-8.883h-12.218H204.39c-3.375,0-6.11,2.734-6.11,6.109v2.133C198.281,483.855,201.015,486.59,204.39,486.59z"/>
	<path class="st0" d="M306.461,496.45H199.844c-3.375,0-6.11,2.734-6.11,6.109v3.332c0,3.371,2.734,6.11,6.11,6.11h106.617
		c3.375,0,6.11-2.738,6.11-6.11v-3.332C312.57,499.183,309.836,496.45,306.461,496.45z"/>
	<path class="st0" d="M218.676,307.23h68.953c3.371,0,6.11-2.738,6.11-6.11v-10.414c0-3.375-2.738-6.11-6.11-6.11h-68.953
		c-3.371,0-6.106,2.734-6.106,6.11v10.414C212.57,304.492,215.305,307.23,218.676,307.23z"/>
	<path class="st0" d="M388.355,290.32v0.004h-0.16v50.496h-52.309v170.497v0.519l0,0V512h52.309h21.582h52.308V290.324h-73.507
		L388.355,290.32z M357.234,391.621v-0.004v-32.019v-0.305h30.961v32.629h-10.722L357.234,391.621z M388.195,410.398v32.328h-30.961
		v-32.328H388.195z M388.195,461.199v32.324h-30.961v-32.324H388.195z M409.543,340.82v-32.023h31.199v32.328h-10.774l-20.191-0.301
		v-0.004H409.543z M440.742,461.199v32.324h-30.965v-32.324H440.742z M440.742,410.398v32.328h-30.965v-32.328H440.742z
		 M440.742,359.598v32.324h-30.965v-32.324H440.742z"/>
	<path class="st0" d="M8.629,290.324v121.16v100.047v0.305l0,0V512h73.894V411.484v-121.16v-50.019H8.629V290.324z M61.176,259.082
		v0.003v31.238H29.977v-31.238v-0.304h10.734L61.176,259.082z M29.977,341.125v-31.242h31.199v31.242H29.977z M29.977,391.922
		v-31.234h31.199v31.234H29.977z M29.977,442.726v-31.242h31.199v31.242H29.977z M29.977,493.523v-32.324h31.199v32.324H29.977z"/>
	<path class="st0" d="M94.386,340.82V512h73.894V340.82H94.386z M146.934,359.594v0.004v32.019v0.309H136.16l-20.426-0.305v-0.004
		v-32.019v-0.305H126.5L146.934,359.594z M115.734,442.726v-32.328h31.199v32.328H115.734z M115.734,493.523v-32.324h31.199v32.324
		H115.734z"/>
	<polygon class="st0" points="484.898,336.687 475.758,331.371 475.758,331.461 475.598,331.371 475.598,511.996 503.371,511.996 
		503.371,347.242 	"/>
	<polygon class="st0" points="94.48,98.012 100.289,105.156 102.426,96.203 107.691,94.168 110.93,93.023 110.828,92.957 
		111.015,92.886 103.156,88.086 102.851,82.43 102.762,79.012 102.668,79.09 102.66,78.89 95.664,84.879 90.211,83.43 
		86.914,82.453 86.961,82.566 86.766,82.516 90.301,91.016 87.242,95.746 85.289,98.586 85.41,98.578 85.301,98.746 	"/>
	<polygon class="st0" points="384.875,231.66 382.379,226.602 380.946,223.477 380.89,223.586 380.801,223.406 376.726,231.66 
		371.168,232.469 367.726,232.867 367.812,232.957 367.613,232.984 374.207,239.414 373.258,244.961 372.574,248.344 
		372.683,248.289 372.652,248.484 380.801,244.203 388.949,248.484 387.394,239.414 391.457,235.45 393.965,233.141 
		393.844,233.125 393.984,232.984 	"/>
	<polygon class="st0" points="122.707,221.074 124.977,229.996 130.679,222.766 136.324,223.133 139.734,223.453 139.668,223.351 
		139.867,223.363 134.754,215.707 136.844,210.465 138.203,207.313 138.086,207.344 138.16,207.156 129.297,209.652 
		124.961,206.047 122.375,203.774 122.371,203.898 122.218,203.77 121.855,212.969 117.102,215.973 114.125,217.734 
		114.238,217.782 114.07,217.886 	"/>
	<polygon class="st0" points="475.598,152.473 483.75,156.758 482.191,147.68 486.242,143.73 488.762,141.414 488.641,141.394 
		488.785,141.254 479.672,139.93 477.172,134.863 475.742,131.746 475.687,131.855 475.598,131.676 471.523,139.93 465.938,140.742 
		462.523,141.141 462.613,141.226 462.414,141.254 469.008,147.68 468.054,153.234 467.375,156.617 467.484,156.558 
		467.449,156.758 	"/>
	<path class="st0" d="M393.394,126.078c21.758,0,39.359-17.602,39.359-39.36c0-21.679-17.602-39.281-39.359-39.281
		c-0.859,0-1.691,0.09-2.523,0.172c-0.297-0.004-0.602-0.008-0.875-0.035c0.023,0.027,0.039,0.062,0.062,0.09
		c-0.058,0.012-0.125,0.008-0.183,0.016c4.32,5.038,6.957,11.679,6.957,18.878c0,16.082-13.118,29.199-29.199,29.199
		c-3.734,0-7.226-0.871-10.5-2.152c-0.813-0.352-1.707-0.547-2.461-0.989c0.004,0.028,0.015,0.059,0.019,0.086
		c-0.054-0.027-0.121-0.035-0.179-0.062C357.312,111.598,373.633,126.078,393.394,126.078z"/>
</g>
</svg>
