<?xml version="1.0" encoding="utf-8"?>
<!-- Generator: Adobe Illustrator 19.1.1, SVG Export Plug-In . SVG Version: 6.00 Build 0)  -->
<svg version="1.1" id="_x31_0" xmlns="http://www.w3.org/2000/svg" xmlns:xlink="http://www.w3.org/1999/xlink" x="0px" y="0px"
	 viewBox="0 0 512 512" style="enable-background:new 0 0 512 512;" xml:space="preserve">
<style type="text/css">
	.st0{fill:#374149;}
</style>
<g>
	<path class="st0" d="M491.09,259.416H373.746v-18.785h85.304V171.65h-85.304v-9.82h85.304V92.849h-85.304v-20.39
		c0-4.707-3.41-8.465-7.582-8.465h-26.203c-4.176,0-7.586,3.758-7.586,8.465v20.39H179.629v-20.39c0-4.707-3.367-8.465-7.582-8.465
		h-26.211c-4.172,0-7.535,3.758-7.535,8.465v20.39H52.953v68.981h85.348v9.82H52.953v68.981h85.348v18.785H20.957L0,341.873
		l0.05,13.102h74.34v89c0,2.226,1.618,4.031,3.614,4.031h35.851c1.996,0,3.614-1.805,3.614-4.031v-89h277.09v89
		c0,2.226,1.618,4.031,3.614,4.031h35.851c1.996,0,3.614-1.805,3.614-4.031v-89h74.34L512,341.873L491.09,259.416z M441.102,141.791
		h-67.355h-41.371H179.629h-41.328H70.902v-28.902h67.398h41.328h152.746h41.371h67.355V141.791z M441.102,220.592h-67.355h-41.371
		H179.629h-41.328H70.902v-28.906h67.398h41.328h152.746h41.371h67.355V220.592z M332.375,161.83v9.82H179.629v-9.82H332.375z
		 M332.375,240.631v18.785H179.629v-18.785H332.375z M23.75,321.795l10.758-42.34h443.031l8.641,34.149l2.042,8.23H115.61
		L23.75,321.795z"/>
</g>
</svg>
