<?xml version="1.0" encoding="utf-8"?>
<!-- Generator: Adobe Illustrator 18.1.1, SVG Export Plug-In . SVG Version: 6.00 Build 0)  -->
<!DOCTYPE svg PUBLIC "-//W3C//DTD SVG 1.1//EN" "http://www.w3.org/Graphics/SVG/1.1/DTD/svg11.dtd">
<svg version="1.1" id="_x31_0" xmlns="http://www.w3.org/2000/svg" xmlns:xlink="http://www.w3.org/1999/xlink" x="0px" y="0px"
	 viewBox="0 0 512 512" style="enable-background:new 0 0 512 512;" xml:space="preserve">
<style type="text/css">
	.st0{fill:#374149;}
</style>
<g>
	<path class="st0" d="M413.586,139.282c-1.219-0.692-2.336-1.454-3.602-2.11c6.699-7.934,10.633-17.282,10.633-27.367
		c0-28.129-30.098-50.902-67.153-50.902c-3.199,0-6.339,0.246-9.418,0.554C333.586,25.418,293.391,0,245.258,0
		c-52.438,0-95.524,30.098-100.942,68.687c-30.286,4.989-52.934,25.301-52.934,49.734c0,7.57,2.277,14.774,6.214,21.234
		c-24.617,14.035-40.621,36.317-40.621,61.43c0,36.192,33.05,66.535,77.554,74.661c2.645,35.086,23.817,66.472,50.715,88.758
		c22.898,19.078,34.102,48.809,31.207,78.414l-4.242,43.57l-2.481,24.551l0.094-0.055l-0.02,0.192l18.289-9.867L243.387,512
		l15.289-10.691L273.91,512l15.285-10.691l12.09,6.602l6.843,3.84l-0.011-0.11l0.172,0.09l-6.402-65.734
		c-2.77-28.316,8.675-55.582,29.234-75.214c24.129-22.898,40.992-57.43,43.148-94.36c46.102-7.324,80.754-38.222,80.754-75.336
		C455.024,175.672,438.632,153.27,413.586,139.282z M306.636,333.734c-0.785,0.882-1.61,1.683-2.414,2.519
		c-0.91,0.934-1.813,1.902-2.738,2.778c-0.27,0.254-0.543,0.473-0.813,0.722c-4.711,4.325-9.613,7.891-14.453,10.559
		c-1.238,0.675-2.477,1.266-3.707,1.828c-0.355,0.164-0.715,0.363-1.066,0.515c-5.125,2.188-10.141,3.352-14.766,3.352
		c-2.894,0-6.094-0.43-9.543-1.168c-9.418-10.711-16.125-23.824-19.324-38.348c-2.523-11.633-2.711-23.511-0.68-35.023
		c4.434,0.68,8.989,1.047,13.727,1.047c19.328,0,36.746-6.215,48.996-16.188c9.476,4.492,20.004,7.821,31.206,9.786
		c-1.785,22.941-11.394,42.586-23.625,56.671C307.168,333.094,306.91,333.434,306.636,333.734z M163.062,174.848
		c1.332,0.542,2.602,1.23,3.821,2c0.602,0.378,1.183,0.785,1.746,1.226c0.52,0.406,1.043,0.801,1.524,1.262
		c11.05,10.578,7.542,32.183,7.542,32.183s-14.066,2.922-25.285-1.594c-0.039-0.015-0.082-0.027-0.125-0.046
		c-1.317-0.535-2.574-1.215-3.786-1.981c-0.613-0.382-1.203-0.797-1.777-1.246c-0.512-0.402-1.035-0.797-1.512-1.254
		c-11.051-10.578-7.539-32.183-7.539-32.183s14.118-2.934,25.344,1.613C163.031,174.836,163.047,174.844,163.062,174.848z
		 M286.984,91.129c1.214-0.762,2.473-1.446,3.793-1.984c0.039-0.016,0.078-0.028,0.117-0.043c11.219-4.519,25.29-1.598,25.29-1.598
		s3.511,21.606-7.543,32.183c-0.477,0.462-1,0.856-1.515,1.258c-0.57,0.445-1.157,0.859-1.766,1.242
		c-1.215,0.766-2.473,1.446-3.798,1.985c-0.035,0.015-0.07,0.027-0.109,0.039c-11.219,4.523-25.294,1.602-25.294,1.602
		s-3.511-21.606,7.539-32.184c0.481-0.457,1-0.851,1.516-1.254C285.785,91.926,286.375,91.512,286.984,91.129z M275.804,192.996
		c1.211-0.766,2.473-1.446,3.793-1.984c0.039-0.016,0.078-0.028,0.118-0.043c11.218-4.519,25.289-1.598,25.289-1.598
		s3.512,21.606-7.539,32.183c-0.48,0.462-1.004,0.86-1.523,1.262c-0.566,0.441-1.148,0.851-1.75,1.23
		c-1.219,0.77-2.489,1.453-3.817,1.996c-0.019,0.007-0.043,0.015-0.062,0.023c-11.226,4.543-25.332,1.614-25.332,1.614
		s-3.512-21.61,7.539-32.188c0.48-0.457,1-0.851,1.515-1.254C274.605,193.793,275.195,193.379,275.804,192.996z M222.375,75.266
		c0,6.246-5.062,11.309-11.309,11.309c-6.246,0-11.312-5.062-11.312-11.309c0-6.25,5.066-11.313,11.312-11.313
		C217.312,63.953,222.375,69.016,222.375,75.266z M225.8,141.766c6.246,0,11.309,5.062,11.309,11.313
		c0,6.246-5.062,11.308-11.309,11.308c-6.246,0-11.312-5.062-11.312-11.308C214.488,146.828,219.555,141.766,225.8,141.766z
		 M177.929,276.606c9.844-1.477,19.137-4,27.75-7.383c0.742,0.493,1.477,1.106,2.34,1.598c-3.879,17.114-4.059,34.84-0.246,52.258
		c0.324,1.566,0.801,3.035,1.242,4.538l0.046,0.512c-15.476-13.758-28.027-31.582-31.019-50.938
		C178.016,276.996,177.957,276.801,177.929,276.606z M356.059,183.594c0-6.246,5.062-11.312,11.308-11.312
		c6.25,0,11.313,5.066,11.313,11.312c0,6.246-5.062,11.309-11.313,11.309C361.121,194.902,356.059,189.84,356.059,183.594z"/>
</g>
</svg>
