<?xml version="1.0" encoding="utf-8"?>
<!-- Generator: Adobe Illustrator 18.1.1, SVG Export Plug-In . SVG Version: 6.00 Build 0)  -->
<!DOCTYPE svg PUBLIC "-//W3C//DTD SVG 1.1//EN" "http://www.w3.org/Graphics/SVG/1.1/DTD/svg11.dtd">
<svg version="1.1" id="_x31_0" xmlns="http://www.w3.org/2000/svg" xmlns:xlink="http://www.w3.org/1999/xlink" x="0px" y="0px"
	 viewBox="0 0 512 512" style="enable-background:new 0 0 512 512;" xml:space="preserve">
<style type="text/css">
	.st0{fill:#374149;}
</style>
<g>
	<path class="st0" d="M355.71,105.09c-36.605-47.66-72.934-80.785-74.465-82.172L256,0l-25.25,22.918
		c-1.531,1.387-37.855,34.512-74.465,82.172c-51.55,67.126-77.691,128.653-77.691,182.871c0,75.73,38.59,119.586,70.961,143.039
		c25.695,18.621,53.817,28.914,77.282,33.672l-2.898,44.152l-0.207,3.02h0.008L223.73,512h64.539l-3.106-47.328
		c23.465-4.758,51.582-15.051,77.278-33.672c32.37-23.453,70.965-67.309,70.965-143.039
		C433.406,233.742,407.266,172.215,355.71,105.09z M282.434,423.066l-2.293-34.953c0.086-0.688,0.191-1.516,0.328-2.582
		c0.082-0.695,0.168-1.469,0.266-2.309c0.191-0.816,0.398-1.695,0.617-2.637c0.442-1.89,0.836-4.109,1.73-6.355
		c0.387-1.164,0.794-2.375,1.215-3.629c0.55-1.207,1.117-2.453,1.703-3.734c1.043-2.687,2.77-5.133,4.312-7.934
		c3.543-5.203,7.954-10.598,13.344-15.176c5.426-4.461,11.535-8.422,17.852-11.179c6.312-2.641,12.656-4.594,18.285-5.352
		c1.414-0.218,2.77-0.426,4.058-0.625c1.301-0.156,2.535-0.149,3.707-0.226c1.176-0.062,2.278-0.118,3.293-0.168
		c0.516-0.024,1.004-0.051,1.477-0.07c0.465,0.027,0.91,0.05,1.332,0.074c3.414,0.179,5.367,0.281,5.367,0.281
		c1.926,0.094,4.211-8.781,2.094-9.449c0,0-2.102-0.66-5.777-1.809c-0.466-0.145-0.954-0.297-1.466-0.453
		c-0.523-0.11-1.07-0.227-1.64-0.348c-1.149-0.234-2.391-0.492-3.715-0.762c-1.336-0.25-2.758-0.606-4.278-0.809
		c-1.523-0.156-3.133-0.32-4.808-0.492c-6.746-0.77-14.77-0.473-23.387,0.793c-8.606,1.383-17.625,4.278-26.308,8.332
		c-3.875,1.863-7.563,4.098-11.137,6.481c-0.778,0.484-1.524,0.914-2.321,1.418l-1.129-17.242c0.016-0.133,0.023-0.246,0.043-0.382
		c0.195-0.793,0.375-1.645,0.594-2.554c0-0.039,0.019-0.059,0.019-0.098c0.414-1.785,0.794-3.843,1.566-5.945
		c0.059-0.156,0.118-0.297,0.176-0.454c0.394-1.171,0.813-2.378,1.23-3.644c0.551-1.211,1.126-2.458,1.703-3.746
		c1.047-2.695,2.789-5.148,4.336-7.961c3.566-5.23,7.985-10.656,13.41-15.254c5.449-4.477,11.59-8.458,17.926-11.23
		c6.359-2.657,12.718-4.618,18.383-5.391c1.426-0.214,2.773-0.414,4.082-0.633c1.309-0.137,2.535-0.137,3.722-0.218
		c1.168-0.058,2.278-0.118,3.309-0.176c0.516-0.019,1.012-0.039,1.485-0.058c0.457,0.019,0.914,0.039,1.328,0.078
		c3.426,0.176,5.386,0.278,5.386,0.278c1.942,0.098,4.242-8.836,2.122-9.488c0,0-2.122-0.676-5.805-1.824
		c-0.473-0.137-0.969-0.298-1.485-0.458c-0.515-0.117-1.07-0.234-1.644-0.355c-1.149-0.238-2.395-0.492-3.723-0.75
		c-1.347-0.258-2.774-0.613-4.301-0.812c-1.542-0.16-3.148-0.336-4.832-0.496c-6.774-0.774-14.836-0.477-23.511,0.793
		c-8.637,1.386-17.692,4.297-26.426,8.379c-3.656,1.742-7.144,3.835-10.527,6.066c-0.734,0.449-1.434,0.847-2.179,1.316
		l-4.29-65.351c-0.203-2.45-5.207-3.602-9.965-3.477c-0.859,0.023-1.718,0.023-2.578,0c-4.762-0.125-9.762,1.027-9.968,3.477
		l-2.836,43.226l-1.535,22.148c-4.004-2.77-8.211-5.305-12.614-7.406c-8.738-4.082-17.789-6.993-26.446-8.379
		c-8.656-1.27-16.718-1.566-23.496-0.793c-1.679,0.16-3.305,0.336-4.832,0.496c-1.523,0.199-2.949,0.554-4.297,0.812
		c-1.328,0.258-2.574,0.512-3.742,0.75c-0.558,0.121-1.113,0.238-1.644,0.355c-0.516,0.16-0.992,0.321-1.469,0.458
		c-3.684,1.148-5.805,1.824-5.805,1.824c-2.117,0.652,0.16,9.586,2.102,9.488c0,0,1.961-0.102,5.386-0.278
		c0.438-0.038,0.871-0.058,1.348-0.078c0.477,0.019,0.973,0.039,1.488,0.058c1.008,0.058,2.118,0.118,3.309,0.176
		c1.168,0.082,2.414,0.082,3.718,0.218c1.29,0.219,2.657,0.418,4.082,0.633c5.649,0.774,12.023,2.734,18.363,5.391
		c6.359,2.773,12.481,6.754,17.946,11.23c5.41,4.598,9.847,10.023,13.41,15.254c1.547,2.813,3.27,5.266,4.321,7.961
		c0.594,1.289,1.168,2.535,1.722,3.746c0.418,1.266,0.832,2.473,1.207,3.644c0.062,0.157,0.141,0.336,0.18,0.493
		c0.793,2.082,1.167,4.14,1.566,5.906c0,0.039,0.019,0.059,0.019,0.098c0.215,0.91,0.414,1.762,0.614,2.554
		c0.011,0.121,0.023,0.222,0.038,0.34l-0.758,11.527l-0.461,5.793c-4.234-2.965-8.695-5.683-13.375-7.934
		c-8.683-4.054-17.699-6.949-26.305-8.332c-8.617-1.266-16.64-1.562-23.39-0.793c-1.672,0.172-3.282,0.336-4.809,0.492
		c-1.515,0.203-2.941,0.558-4.273,0.809c-1.329,0.27-2.57,0.527-3.719,0.762c-0.566,0.121-1.114,0.238-1.637,0.348
		c-0.511,0.156-1,0.308-1.465,0.453c-3.676,1.149-5.778,1.809-5.778,1.809c-2.117,0.668,0.165,9.542,2.094,9.449
		c0,0,1.949-0.102,5.363-0.281c0.426-0.024,0.871-0.047,1.336-0.074c0.469,0.019,0.961,0.046,1.472,0.07
		c1.02,0.05,2.122,0.106,3.298,0.168c1.171,0.078,2.406,0.07,3.702,0.226c1.29,0.199,2.645,0.406,4.063,0.625
		c5.629,0.758,11.969,2.711,18.285,5.352c6.313,2.758,12.422,6.718,17.852,11.179c5.39,4.578,9.8,9.973,13.343,15.176
		c1.543,2.801,3.266,5.246,4.313,7.934c0.582,1.282,1.152,2.527,1.703,3.734c0.418,1.254,0.824,2.465,1.214,3.629
		c0.894,2.246,1.29,4.465,1.73,6.355c0.219,0.942,0.426,1.821,0.618,2.637c0.094,0.84,0.183,1.614,0.266,2.309
		c0.133,1.066,0.238,1.894,0.328,2.582l-1.969,30l-0.355,4.98c-46.133-11-109.469-49.703-109.469-135.133
		c0-99.039,116.82-213.785,135.934-231.89c19.113,18.102,135.934,132.816,135.934,231.89c0,79.946-55.465,118.965-100.39,132.656
		C288.504,421.527,285.461,422.355,282.434,423.066z"/>
</g>
</svg>
