<?xml version="1.0" encoding="UTF-8" standalone="no"?>
<svg
   xmlns:dc="http://purl.org/dc/elements/1.1/"
   xmlns:cc="http://creativecommons.org/ns#"
   xmlns:rdf="http://www.w3.org/1999/02/22-rdf-syntax-ns#"
   xmlns:svg="http://www.w3.org/2000/svg"
   xmlns="http://www.w3.org/2000/svg"
   xmlns:sodipodi="http://sodipodi.sourceforge.net/DTD/sodipodi-0.dtd"
   xmlns:inkscape="http://www.inkscape.org/namespaces/inkscape"
   width="38"
   height="38"
   viewBox="0 0 38 38"
   version="1.1"
   id="svg8"
   sodipodi:docname="P (1).svg"
   inkscape:version="0.92.1 r15371">
  <metadata
     id="metadata14">
    <rdf:RDF>
      <cc:Work
         rdf:about="">
        <dc:format>image/svg+xml</dc:format>
        <dc:type
           rdf:resource="http://purl.org/dc/dcmitype/StillImage" />
      </cc:Work>
    </rdf:RDF>
  </metadata>
  <defs
     id="defs12" />
  <sodipodi:namedview
     pagecolor="#ffffff"
     bordercolor="#666666"
     borderopacity="1"
     objecttolerance="10"
     gridtolerance="10"
     guidetolerance="10"
     inkscape:pageopacity="0"
     inkscape:pageshadow="2"
     inkscape:window-width="1920"
     inkscape:window-height="1017"
     id="namedview10"
     showgrid="false"
     inkscape:zoom="6.2105263"
     inkscape:cx="-8.2923729"
     inkscape:cy="19"
     inkscape:window-x="-8"
     inkscape:window-y="-8"
     inkscape:window-maximized="1"
     inkscape:current-layer="svg8" />
  <ellipse
     style="fill:#9600ff;fill-rule:nonzero;stroke-width:0.64384472;fill-opacity:1"
     id="circle2"
     cy="19"
     cx="19"
     rx="11.915255"
     ry="12.559322" />
  <path
     style="fill:#ffffff;fill-rule:evenodd"
     inkscape:connector-curvature="0"
     id="path4"
     d="M 19.302,22.103 A 0.417,0.417 0 0 1 19.674,21.5 h 0.993 l 1.25,2.5 h 3.333 c 0.23,0 0.417,0.187 0.417,0.417 v 0.833 c 0,0.23 -0.187,0.417 -0.417,0.417 H 24.833 V 29 H 13.167 V 26.083 A 0.417,0.417 0 0 0 12.75,25.667 0.417,0.417 0 0 1 12.333,25.25 V 24.417 C 12.333,24.187 12.52,24 12.75,24 h 3.694 l -0.659,-9.89 a 1.667,1.667 0 0 1 1.663,-1.777 h 3.211 c 0.745,0 1.399,0.494 1.603,1.21 l 1.018,3.561 a 0.833,0.833 0 0 1 -0.617,1.042 l 0.404,2.022 a 0.417,0.417 0 0 1 -0.409,0.499 h -5.325 c 0,0.382 0.258,0.705 0.61,0.802 L 18.11,24 h 2.139 L 19.301,22.103 Z M 18.583,11.5 a 1.25,1.25 0 1 1 0,-2.5 1.25,1.25 0 0 1 0,2.5 z M 19,25.667 c 0,0.46 0.373,0.833 0.833,0.833 h 5 v -0.833 z" />
</svg>
