<?xml version="1.0" encoding="UTF-8" standalone="no"?>
<!-- Generator: Adobe Illustrator 18.1.1, SVG Export Plug-In . SVG Version: 6.00 Build 0)  -->

<svg
   xmlns:dc="http://purl.org/dc/elements/1.1/"
   xmlns:cc="http://creativecommons.org/ns#"
   xmlns:rdf="http://www.w3.org/1999/02/22-rdf-syntax-ns#"
   xmlns:svg="http://www.w3.org/2000/svg"
   xmlns="http://www.w3.org/2000/svg"
   xmlns:sodipodi="http://sodipodi.sourceforge.net/DTD/sodipodi-0.dtd"
   xmlns:inkscape="http://www.inkscape.org/namespaces/inkscape"
   version="1.1"
   id="_x31_0"
   x="0px"
   y="0px"
   viewBox="0 0 512 512"
   style="enable-background:new 0 0 512 512;"
   xml:space="preserve"
   sodipodi:docname="sk.svg"
   inkscape:version="0.92.2 (5c3e80d, 2017-08-06)"><metadata
     id="metadata3760"><rdf:RDF><cc:Work
         rdf:about=""><dc:format>image/svg+xml</dc:format><dc:type
           rdf:resource="http://purl.org/dc/dcmitype/StillImage" /></cc:Work></rdf:RDF></metadata><defs
     id="defs3758" /><sodipodi:namedview
     pagecolor="#ffffff"
     bordercolor="#666666"
     borderopacity="1"
     objecttolerance="10"
     gridtolerance="10"
     guidetolerance="10"
     inkscape:pageopacity="0"
     inkscape:pageshadow="2"
     inkscape:window-width="1214"
     inkscape:window-height="598"
     id="namedview3756"
     showgrid="false"
     inkscape:zoom="0.4609375"
     inkscape:cx="-29.288133"
     inkscape:cy="257.08475"
     inkscape:window-x="110"
     inkscape:window-y="166"
     inkscape:window-maximized="0"
     inkscape:current-layer="_x31_0" /><style
     type="text/css"
     id="style3743">
	.st0{fill:#374149;}
</style><g
     id="g3753"
     style="fill:#ffff00;fill-opacity:1"><path
       class="st0"
       d="M506.551,115.331H5.449c-3.351,0-5.91,3-5.378,6.309l6.816,42.453c1.074,13.144,12.054,23.258,25.242,23.258   h447.742c13.188,0,24.168-10.114,25.242-23.258l6.816-42.453C512.462,118.331,509.902,115.331,506.551,115.331z"
       id="path3745"
       style="fill:#ffff00;fill-opacity:1" /><path
       class="st0"
       d="M184.284,205.921l-156.456-0.082l0.05,0.082h-0.187l19.465,32.042h20.922c3.957,0,7.406,2.691,8.367,6.527   l10.078,40.32h35.297l10.078-40.32c0.961-3.836,4.41-6.527,8.367-6.527h231.47c3.958,0,7.406,2.691,8.367,6.527l10.078,40.32   h35.297l10.078-40.32c0.961-3.836,4.41-6.527,8.367-6.527h20.918l12.804-21.078l6.66-10.805h-0.094l0.094-0.16H184.284z"
       id="path3747"
       style="fill:#ffff00;fill-opacity:1" /><path
       class="st0"
       d="M86.522,300.123v89.41c0,3.941,3.195,7.136,7.137,7.136h21.023c3.942,0,7.137-3.195,7.137-7.136v-89.41H86.522   z"
       id="path3749"
       style="fill:#ffff00;fill-opacity:1" /><path
       class="st0"
       d="M425.478,300.279v-0.156h-35.297v89.41c0,3.941,3.195,7.136,7.137,7.136h21.023   c3.942,0,7.137-3.195,7.137-7.136v-88.98V300.279L425.478,300.279z"
       id="path3751"
       style="fill:#ffff00;fill-opacity:1" /></g></svg>