<svg xmlns="http://www.w3.org/2000/svg" class="img-svg replaced-svg" id="svg2" viewBox="0 0 323.972 325.424" width="91.432mm" height="91.8418mm" xmlns:sodipodi="http://sodipodi.sourceforge.net/DTD/sodipodi-0.dtd" sodipodi:docname="2.svg" xmlns:inkscape="http://www.inkscape.org/namespaces/inkscape" inkscape:version="0.91 r13725" version="1.1">
  <defs id="defs4" />
  <sodipodi:namedview fit-margin-bottom="0" fit-margin-right="0" fit-margin-left="0" fit-margin-top="0" inkscape:window-maximized="1" inkscape:window-y="-8" inkscape:window-x="-8" inkscape:window-height="973" inkscape:window-width="1280" inkscape:snap-page="false" showgrid="false" inkscape:current-layer="layer1" inkscape:document-units="px" inkscape:cy="249.36322" inkscape:cx="101.0214" inkscape:zoom="0.98994949" inkscape:pageshadow="2" inkscape:pageopacity="0.0" borderopacity="1.0" bordercolor="#666666" pagecolor="#ffffff" id="base"></sodipodi:namedview>
  <g id="layer1" transform="translate(-111.396 -163.945)" inkscape:groupmode="layer" inkscape:label="Layer 1">
    <g id="layer1-2" transform="matrix(1.48417 0 0 1.54884 -174.814 44.3733)" inkscape:label="Layer 1">
      <path id="path3358" style="fill: #929292;" d="m 200.969 283.353 c -2.04417 -2.2315 -1.32412 -7.83181 1.20684 -9.38638 c 1.72038 -1.05668 2.5666 -6.09886 2.9645 -17.6639 l 0.55687 -16.1851 l -5.50551 0.003 c -8.63697 0.008 -7.3702 -6.74076 4.65851 -24.8138 c 8.5524 -12.8499 10.164 -16.4913 10.164 -22.965 l 0 -7.69365 l 10.164 0 c 7.90536 0 10.164 -0.61641 10.164 -2.77384 c 0 -2.15743 -2.25866 -2.77384 -10.164 -2.77384 l -10.164 0 l 0 -8.32152 l 0 -8.32154 l 10.164 0 c 7.90536 0 10.164 -0.6164 10.164 -2.77384 c 0 -2.15742 -2.25866 -2.77384 -10.164 -2.77384 l -10.164 0 l 0 -7.39692 c 0 -6.13533 -0.57117 -7.39691 -3.34896 -7.39691 c -1.84192 0 -4.59764 -2.08038 -6.12384 -4.62307 c -2.57497 -4.29002 -2.57027 -4.96394 0.0652 -9.3548 c 2.23212 -3.71884 3.99338 -4.60951 8.22747 -4.16076 c 3.50679 0.37165 5.58217 1.69368 5.94544 3.78724 c 0.46416 2.67508 -0.31737 3.02514 -4.64465 2.08037 c -4.50183 -0.98286 -5.20271 -0.60651 -5.20271 2.79373 c 0 2.16266 1.08215 3.9296 2.40666 3.9296 c 1.32364 0 16.3791 -7.19288 33.4566 -15.9842 c 35.5869 -18.3198 41.6333 -19.8508 50.9544 -12.9026 l 6.35252 4.73534 l 6.35251 -4.73534 c 9.32117 -6.94829 15.3675 -5.41724 50.9544 12.9026 c 17.0775 8.79131 32.1329 15.9842 33.4566 15.9842 c 1.32451 0 2.40666 -1.76694 2.40666 -3.9296 c 0 -3.40024 -0.70088 -3.77659 -5.20271 -2.79373 c -4.32728 0.94477 -5.10881 0.59471 -4.64463 -2.08037 c 0.36326 -2.09356 2.43865 -3.41559 5.94542 -3.78724 c 4.2341 -0.44875 5.99535 0.44192 8.22747 4.16076 c 2.63551 4.39086 2.64021 5.06478 0.0652 9.3548 c -1.5262 2.54269 -4.28192 4.62307 -6.12384 4.62307 c -2.77776 0 -3.34894 1.26158 -3.34894 7.39691 l 0 7.39692 l -10.164 0 c -7.90536 0 -10.164 0.61642 -10.164 2.77384 c 0 2.15744 2.25866 2.77384 10.164 2.77384 l 10.164 0 l 0 8.32154 l 0 8.32152 l -10.164 0 c -7.90536 0 -10.164 0.61641 -10.164 2.77384 c 0 2.15743 2.25866 2.77384 10.164 2.77384 l 10.164 0 l 0 7.69371 c 0 6.47379 1.61162 10.1151 10.164 22.9651 c 12.0287 18.073 13.2955 24.8205 4.65851 24.8138 l -5.50551 -0.003 l 0.55746 16.0881 c 0.4079 11.772 1.25263 16.643 3.14871 18.1565 c 3.9926 3.18698 2.10646 9.22084 -2.88238 9.22084 c -4.14722 0 -4.21927 -0.26185 -4.69854 -17.0779 c -0.4691 -16.4594 -0.60737 -16.9957 -3.81737 -14.8073 c -4.44023 3.02707 -9.06795 -0.12907 -9.78393 -6.67278 l -0.53602 -4.89891 l -79.3931 0 l -79.3931 0 l -0.53601 4.89886 c -0.71599 6.54368 -5.3437 9.69983 -9.78394 6.67275 c -3.21 -2.18835 -3.34827 -1.65208 -3.81737 14.8073 c -0.44398 15.5778 -0.79045 17.1254 -3.94445 17.6182 c -1.90174 0.29718 -3.99807 -0.0496 -4.65851 -0.77049 Z m 17.4332 -39.5282 c 0 -1.01707 -1.5246 -1.84923 -3.38801 -1.84923 c -1.8634 0 -3.38801 0.83216 -3.38801 1.84923 c 0 1.01708 1.52461 1.84923 3.38801 1.84923 c 1.86341 0 3.38801 -0.83215 3.38801 -1.84923 Z m 176.176 0 c 0 -1.01707 -1.5246 -1.84923 -3.388 -1.84923 c -1.86341 0 -3.38801 0.83216 -3.38801 1.84923 c 0 1.01708 1.5246 1.84923 3.38801 1.84923 c 1.8634 0 3.388 -0.83215 3.388 -1.84923 Z m -3.81151 -20.8038 c -0.55244 -1.80921 -19.6034 -2.31154 -87.6647 -2.31154 c -68.0613 0 -87.1122 0.50233 -87.6647 2.31154 c -0.55865 1.82953 17.7212 2.31154 87.6647 2.31154 c 69.9435 0 88.2233 -0.48201 87.6647 -2.31154 Z m -8.47001 -12.9446 c -0.55113 -1.80489 -17.9094 -2.31153 -79.1947 -2.31153 c -61.2853 0 -78.6435 0.50664 -79.1946 2.31153 c -0.55802 1.82745 16.0271 2.31154 79.1946 2.31154 c 63.1675 0 79.7527 -0.48409 79.1947 -2.31154 Z m -82.5827 -28.2007 c 0 -2.35354 -4.23501 -2.77384 -27.9511 -2.77384 c -23.716 0 -27.951 0.4203 -27.951 2.77384 c 0 2.35357 4.23501 2.77385 27.951 2.77385 c 23.716 0 27.9511 -0.42028 27.9511 -2.77385 Z m 62.6781 0 c 0 -2.35354 -4.23501 -2.77384 -27.9511 -2.77384 c -23.716 0 -27.951 0.4203 -27.951 2.77384 c 0 2.35357 4.23501 2.77385 27.951 2.77385 c 23.716 0 27.9511 -0.42028 27.9511 -2.77385 Z m -62.6781 -22.1907 c 0 -2.35355 -4.23501 -2.77384 -27.9511 -2.77384 c -23.716 0 -27.951 0.42029 -27.951 2.77384 c 0 2.35357 4.23501 2.77385 27.951 2.77385 c 23.716 0 27.9511 -0.42028 27.9511 -2.77385 Z m 62.6781 0 c 0 -2.35355 -4.23501 -2.77384 -27.9511 -2.77384 c -23.716 0 -27.951 0.42029 -27.951 2.77384 c 0 2.35357 4.23501 2.77385 27.951 2.77385 c 23.716 0 27.9511 -0.42028 27.9511 -2.77385 Z m -83.9372 -23.9204 c -3.78365 -6.30371 -2.50589 -13.8205 3.12618 -18.391 c 4.37485 -3.55019 5.08558 -3.62926 9.31702 -1.03659 c 4.82143 2.95417 6.40995 8.75881 2.03986 7.45391 c -6.34331 -1.89411 -10.9373 -0.98488 -11.5365 2.28326 c -0.74724 4.07588 4.20201 10.4955 8.09161 10.4955 c 4.55785 0 10.2209 -7.07234 10.2209 -12.7645 c 0 -6.96952 -7.39123 -14.974 -13.8268 -14.974 c -4.41558 0 -57.5865 25.7515 -61.4716 29.7717 c -0.95776 0.99105 10.2031 1.66524 27.5666 1.66524 l 29.1759 0 l -2.70315 -4.50354 Z m 27.5511 1.33344 c -2.74268 -2.994 -3.06535 -2.994 -5.80803 0 c -2.74266 2.994 -2.58134 3.1701 2.90401 3.1701 c 5.48534 0 5.64668 -0.17605 2.90402 -3.1701 Z m 75.7824 1.49476 c -3.75729 -3.91141 -57.2716 -29.7616 -61.6116 -29.7616 c -6.29301 0 -13.6868 8.08918 -13.6868 14.974 c 0 5.69212 5.66304 12.7645 10.2209 12.7645 c 3.88958 0 8.83883 -6.41958 8.09161 -10.4955 c -0.59915 -3.26814 -5.19317 -4.17737 -11.5365 -2.28326 c -4.37008 1.3049 -2.78157 -4.49974 2.03987 -7.45391 c 4.23144 -2.59267 4.94217 -2.5136 9.31702 1.03659 c 5.63209 4.57042 6.90982 12.0872 3.12618 18.391 l -2.70315 4.50354 l 29.1759 0 c 17.4865 0 28.5311 -0.67121 27.5666 -1.67534 Z" inkscape:connector-curvature="0" />
    </g>
  </g>
</svg>