<?xml version="1.0" encoding="UTF-8" standalone="no"?>
<!-- Generator: Adobe Illustrator 18.1.1, SVG Export Plug-In . SVG Version: 6.00 Build 0)  -->

<svg
   xmlns:dc="http://purl.org/dc/elements/1.1/"
   xmlns:cc="http://creativecommons.org/ns#"
   xmlns:rdf="http://www.w3.org/1999/02/22-rdf-syntax-ns#"
   xmlns:svg="http://www.w3.org/2000/svg"
   xmlns="http://www.w3.org/2000/svg"
   xmlns:sodipodi="http://sodipodi.sourceforge.net/DTD/sodipodi-0.dtd"
   xmlns:inkscape="http://www.inkscape.org/namespaces/inkscape"
   version="1.1"
   id="_x31_0"
   x="0px"
   y="0px"
   viewBox="0 0 512 512"
   style="enable-background:new 0 0 512 512;"
   xml:space="preserve"
   sodipodi:docname="w.svg"
   inkscape:version="0.92.1 r15371"><metadata
   id="metadata15"><rdf:RDF><cc:Work
       rdf:about=""><dc:format>image/svg+xml</dc:format><dc:type
         rdf:resource="http://purl.org/dc/dcmitype/StillImage" /></cc:Work></rdf:RDF></metadata><defs
   id="defs13" /><sodipodi:namedview
   pagecolor="#ffffff"
   bordercolor="#666666"
   borderopacity="1"
   objecttolerance="10"
   gridtolerance="10"
   guidetolerance="10"
   inkscape:pageopacity="0"
   inkscape:pageshadow="2"
   inkscape:window-width="1920"
   inkscape:window-height="1017"
   id="namedview11"
   showgrid="false"
   inkscape:zoom="0.4609375"
   inkscape:cx="-479.45762"
   inkscape:cy="256"
   inkscape:window-x="-8"
   inkscape:window-y="-8"
   inkscape:window-maximized="1"
   inkscape:current-layer="_x31_0" />
<style
   type="text/css"
   id="style2">
	.st0{fill:#374149;}
</style>
<g
   id="g8"
   style="fill:#005500;fill-opacity:1;stroke:#56ff56;stroke-opacity:1;stroke-width:20.50929471;stroke-miterlimit:4;stroke-dasharray:none"
   transform="matrix(0.77027102,0,0,1,58.810847,0)">
	<path
   class="st0"
   d="m 280.365,391.094 v -0.172 c -14.68,6.355 -31.207,6.625 -46.09,0.961 -0.832,-0.336 -1.684,-0.614 -2.504,-0.992 v 0.058 c -0.047,-0.019 -0.098,-0.035 -0.145,-0.054 l -0.011,-0.004 v 96.734 c 0,14.535 12.722,26.074 27.59,24.168 12.278,-1.574 21.16,-12.614 21.16,-24.992 V 418.75 l 0.062,-27.68 c -0.019,0.008 -0.043,0.016 -0.062,0.024 z"
   id="path4"
   style="fill:#005500;fill-opacity:1;stroke:#56ff56;stroke-opacity:1;stroke-width:20.50929471;stroke-miterlimit:4;stroke-dasharray:none"
   inkscape:connector-curvature="0" />
	<path
   class="st0"
   d="m 403.647,146.285 c -0.024,-0.012 -0.055,-0.024 -0.078,-0.039 4.238,-8.668 6.68,-18.375 6.68,-28.676 0,-36.168 -29.317,-65.488 -65.485,-65.488 -7.934,0 -15.492,1.503 -22.523,4.094 -0.469,0.16 -0.946,0.285 -1.414,0.453 C 317.519,32.121 300.686,11.891 278.046,3.797 271.151,1.324 263.732,0 256.002,0 c -7.73,0 -15.114,1.324 -21.973,3.797 -21.09,7.5 -37.023,25.578 -41.844,47.797 -0.378,1.68 -0.824,3.328 -1.074,5.051 -7.41,-2.91 -15.454,-4.562 -23.895,-4.562 -36.168,0 -65.488,29.32 -65.488,65.488 0,8.883 1.906,17.282 5.125,24.996 0.489,1.242 0.926,2.489 1.489,3.719 h -0.02 c -24.515,13.234 -41.195,39.175 -41.195,68.984 0,21.238 8.461,40.496 22.184,54.598 1.702,1.742 3.48,3.45 5.359,5.051 7.805,6.629 16.945,11.726 26.926,14.898 0.394,0.137 0.774,0.309 1.172,0.438 -0.348,0.726 -0.656,1.453 -0.934,2.179 -0.211,0.489 -0.383,0.977 -0.594,1.496 -0.454,1.149 -0.871,2.336 -1.254,3.485 -0.312,1.008 -0.625,2.019 -0.902,3.062 -0.281,0.801 -0.488,1.637 -0.664,2.438 -0.141,0.523 -0.277,1.047 -0.382,1.566 -0.313,1.289 -0.555,2.614 -0.766,3.938 -0.141,0.625 -0.242,1.285 -0.313,1.949 -0.176,1.043 -0.316,2.126 -0.418,3.168 -0.176,1.394 -0.278,2.786 -0.348,4.215 -0.07,1.39 -0.106,2.75 -0.106,4.141 0,1.777 0.07,3.519 0.207,5.262 0.664,10.168 3.238,19.777 7.418,28.484 2.543,5.294 5.676,10.27 9.298,14.832 8.812,11.18 20.652,19.918 34.266,24.934 5.398,1.985 11.038,3.41 16.926,4.18 3.34,0.449 6.754,0.66 10.234,0.66 13.442,0 26.117,-3.414 37.191,-9.402 v -26.5 l -65.535,-73.473 -3.168,-3.55 c -0.347,-0.489 -0.664,-1.047 -0.836,-1.707 -0.175,-0.836 -0.106,-1.848 0.489,-3.066 1.042,-2.09 4.77,-6.129 7.832,-6.129 0.836,0 1.637,0.246 2.266,0.734 l 4.175,3.656 h 0.035 l 4.598,4.004 30.25,26.465 19.734,17.41 v -0.141 l 0.16,0.141 V 286.93 l -22.809,-25.558 -2.578,-2.886 -13.266,-14.906 h -0.035 l -30.016,-33.672 c -0.176,-0.226 -0.332,-0.488 -0.473,-0.766 -0.062,-0.129 -0.109,-0.262 -0.156,-0.394 -0.226,-0.582 -0.348,-1.246 -0.218,-2.023 0.007,-0.074 0.035,-0.145 0.05,-0.219 0.09,-0.43 0.23,-0.879 0.481,-1.367 1.011,-2.09 4.738,-6.164 7.801,-6.164 0.836,0 1.637,0.278 2.266,0.766 l 45.129,39.418 1.774,1.566 6.781,5.918 5.11,4.598 v -0.137 l 0.16,0.137 v -75.598 c 0,-13.477 10.934,-24.375 24.375,-24.375 6.718,0 12.848,2.715 17.238,7.141 4.422,4.422 7.137,10.481 7.137,17.234 v 45.469 l -0.106,29.942 0.106,-0.094 v 0.21 l 12.011,-10.515 1.778,-1.531 44.922,-39.246 c 0.801,-0.625 1.637,-0.902 2.473,-0.902 3.062,0 6.79,4.074 7.832,6.164 1.118,2.226 0.383,3.793 -0.172,4.527 l -30.226,33.914 -13.266,14.867 -2.578,2.89 -22.774,25.527 v 25.102 l -0.106,16.528 0.106,-0.09 v 0.211 l 50.109,-43.805 4.598,-4.004 4.003,-3.484 c 0.801,-0.626 1.637,-0.906 2.473,-0.906 3.062,0 6.79,4.039 7.832,6.129 0.594,1.218 0.664,2.266 0.524,3.066 -0.141,0.66 -0.454,1.149 -0.696,1.461 l -3.343,3.762 -65.5,73.438 v 26.606 c 11.074,5.989 23.75,9.367 37.191,9.367 3.481,0 6.93,-0.242 10.305,-0.66 5.851,-0.77 11.492,-2.195 16.855,-4.18 0.035,0 0.106,-0.035 0.137,-0.035 13.477,-5.015 25.211,-13.648 33.989,-24.722 0.034,-0.07 0.105,-0.106 0.14,-0.176 3.622,-4.527 6.719,-9.507 9.262,-14.766 4.211,-8.738 6.79,-18.382 7.454,-28.55 0,-0.035 0,-0.035 0,-0.07 0.137,-1.707 0.207,-3.45 0.207,-5.191 0,-10.954 -2.274,-21.332 -6.387,-30.79 -0.117,-0.285 -0.203,-0.578 -0.324,-0.867 10.477,-3.133 20.016,-8.422 28.125,-15.351 1.883,-1.566 3.657,-3.274 5.363,-5.016 13.719,-14.102 22.18,-33.359 22.18,-54.598 -0.002,-29.849 -16.678,-55.789 -41.228,-68.989 z"
   id="path6"
   style="fill:#005500;fill-opacity:1;stroke:#56ff56;stroke-opacity:1;stroke-width:20.50929471;stroke-miterlimit:4;stroke-dasharray:none"
   inkscape:connector-curvature="0" />
</g>
</svg>